<svg width="148" height="148" viewBox="0 0 148 148" fill="none" xmlns="http://www.w3.org/2000/svg">
<path d="M74 135.667C108.058 135.667 135.667 108.058 135.667 74C135.667 39.9424 108.058 12.3333 74 12.3333C39.9424 12.3333 12.3333 39.9424 12.3333 74C12.3333 108.058 39.9424 135.667 74 135.667Z" fill="#57B6EB"/>
<path d="M46.25 74L64.75 92.5L101.75 55.5M135.667 74C135.667 108.058 108.058 135.667 74 135.667C39.9424 135.667 12.3333 108.058 12.3333 74C12.3333 39.9424 39.9424 12.3333 74 12.3333C108.058 12.3333 135.667 39.9424 135.667 74Z" stroke="#F4FBFE" stroke-width="12.3333" stroke-linecap="round" stroke-linejoin="round"/>
</svg>
